<svg width="19" height="21" fill="none" xmlns="http://www.w3.org/2000/svg"><path d="M10.575 20.943c-1.507 0-2.902-.257-4.185-.771a10.755 10.755 0 01-3.377-2.2 10.451 10.451 0 01-2.232-3.343C.261 13.352 0 11.97 0 10.486 0 8.98.26 7.6.781 6.343a10.123 10.123 0 012.232-3.314 10.843 10.843 0 013.349-2.2c1.283-.534 2.67-.8 4.157-.8 1.563 0 2.967.257 4.213.771a10.277 10.277 0 013.293 2.086l-3.348 3.428a4.881 4.881 0 00-1.73-1.257c-.688-.305-1.498-.457-2.428-.457a5.9 5.9 0 00-2.204.4 4.657 4.657 0 00-1.702 1.2 5.632 5.632 0 00-1.144 1.857c-.26.724-.39 1.534-.39 2.429 0 .895.13 1.704.39 2.428.279.724.66 1.353 1.144 1.886A5.157 5.157 0 008.315 16a5.9 5.9 0 002.204.4c.93 0 1.749-.143 2.456-.428a5.203 5.203 0 001.813-1.286l3.349 3.428a10.7 10.7 0 01-3.293 2.086c-1.209.495-2.632.743-4.269.743z" fill="#000"/></svg>